Exact Audio Copy V0.99 prebeta 1 from 25. May 2007

EAC 抓取日志文件从22. 二月 2011, 23:07

群星 / 港台歌坛名人集

使用驱动器  ：PIONEER DVD-RW  DVR-115   Adapter: 0  ID: 0

读取模式     : 保护
使用精确流   : 是
废除音频缓冲 : 是
使用 C2 指针 : 否

组合读/写偏移校正              : 48
读取 Lead-In 和 Lead-Out       : 否
用静音填充抓取中丢失偏移的采样 : 是
去除首尾静音块                 : 否
已用接口                       : Win NT 及 2000 本地 Win32 接口

所用输出格式 : 内部 WAV 函数
样本格式     : 44.100 Hz;16 Bit;立体声
使用压缩偏移 : 48


被抓轨 CD 的 TOC

     音轨 |   开始   |   长度   | 起始扇区 | 结尾扇区 
    --------------------------------------------------
       1  |  0:00.00 |  4:26.69 |       0  |   20018  
       2  |  4:26.69 |  3:54.71 |   20019  |   37639  
       3  |  8:21.65 |  2:59.47 |   37640  |   51111  
       4  | 11:21.37 |  3:43.73 |   51112  |   67909  
       5  | 15:05.35 |  5:09.37 |   67910  |   91121  
       6  | 20:14.72 |  3:50.18 |   91122  |  108389  
       7  | 24:05.15 |  4:23.57 |  108390  |  128171  
       8  | 28:28.72 |  4:06.55 |  128172  |  146676  
       9  | 32:35.52 |  3:53.35 |  146677  |  164186  
      10  | 36:29.12 |  5:20.38 |  164187  |  188224  
      11  | 41:49.50 |  3:52.55 |  188225  |  205679  
      12  | 45:42.30 |  4:43.57 |  205680  |  226961  
      13  | 50:26.12 |  4:27.68 |  226962  |  247054  


范围状态及错误

已选择范围

     文件名 E:\20世纪中华歌坛名人百集珍藏版-港台歌坛名人集[lwg188原创]\群星 - 港台歌坛名人集.wav

     峰值电平 100.0 %
     范围质量 99.9 %
     复制 CRC FDC2A795
     复制成功

没有错误发生

状态报告结尾
